PathFileType	4	(X/Y/Z)	/Users/niels/Desktop/University/Third Semester/Perception and Action/Exam/Gymnastics Motion Tracking/Code for Gym Tracking/Analyzed Data/Webcam_Backflip/id4_4_pure_Sports2D/id4_4_pure_Sports2D_px_person00.trc
DataRate	CameraRate	NumFrames	NumMarkers	Units	OrigDataRate	OrigDataStartFrame	OrigNumFrames
29.8125	29.8125	8	22	m	29.8125	80	160
Frame#	Time	Hip			RHip			RKnee			RAnkle			RBigToe			RSmallToe			RHeel			LHip			LKnee			LAnkle			LBigToe			LSmallToe			LHeel			Neck			Head			Nose			RShoulder			RElbow			RWrist			LShoulder			LElbow			LWrist		
		X1	Y1	Z1	X2	Y2	Z2	X3	Y3	Z3	X4	Y4	Z4	X5	Y5	Z5	X6	Y6	Z6	X7	Y7	Z7	X8	Y8	Z8	X9	Y9	Z9	X10	Y10	Z10	X11	Y11	Z11	X12	Y12	Z12	X13	Y13	Z13	X14	Y14	Z14	X15	Y15	Z15	X16	Y16	Z16	X17	Y17	Z17	X18	Y18	Z18	X19	Y19	Z19	X20	Y20	Z20	X21	Y21	Z21	X22	Y22	Z22
80	2.683438155136268	0.9146063734559773	-0.37697529087078774	0.0	0.9092033429162805	-0.37311123477784613	0.0	0.9233565090301513	-0.49129056346783506	0.0	0.9214033594602543	-0.6026454299941535	0.0	0.9524860154300455	-0.6448315793793575	0.0	0.9407048220132249	-0.6456892718271765	0.0	0.9107080582106365	-0.6162233766261158	0.0	0.9173114153345404	-0.3736377589563395	0.0	0.9232735766053154	-0.4943565308536558	0.0	0.9219703982058414	-0.6023723697013174	0.0	0.9500620689923808	-0.6463145586412804	0.0	0.9515313656224028	-0.6407330290085124	0.0	0.9112895716230566	-0.6157296541287021	0.0	0.955425154493915	-0.23222911317494496	0.0	0.9784921997083239	-0.16147044369056726	0.0	0.9888144890934266	-0.1955450154607941	0.0	0.947032234542249	-0.23647377949887588	0.0	1.016640466622304	-0.1821567906863952	0.0	1.058425990725391	-0.12881093831730567	0.0	0.9642229832635162	-0.2421899050682017	0.0	1.023492607899651	-0.22258833980869816	0.0	1.0788434204296808	-0.19296462916048082	0.0
81	2.716981132075471	0.914302651373352	-0.3965820715964035	0.0	0.9094328864214599	-0.39372342600420307	0.0	0.9238490817676062	-0.5119291319380813	0.0	0.9249902876230621	-0.6229087850319672	0.0	0.9579743448261558	-0.6649621933043995	0.0	0.9464567551807193	-0.6660836568739156	0.0	0.9141638507416854	-0.6369154555163952	0.0	0.9159739311729982	-0.39321512406759723	0.0	0.9233866738415141	-0.5137516894468955	0.0	0.9240554506219413	-0.6214918675396603	0.0	0.9531094495989572	-0.663990898137361	0.0	0.9535199526360397	-0.6579760729467705	0.0	0.9132768435400161	-0.6351554707975616	0.0	0.9569848036207461	-0.25064244403659525	0.0	0.981784177403924	-0.17919401977791824	0.0	0.9910867944929893	-0.21448940390362708	0.0	0.9490037706328884	-0.256192287915982	0.0	1.0225753930900614	-0.21441768431154537	0.0	1.0699591180234085	-0.16965591678571762	0.0	0.9625606348892997	-0.2590244485797034	0.0	1.0259620672331677	-0.24072947687313126	0.0	1.0837407487541346	-0.21012560043878975	0.0
82	2.7505241090146746	0.913955713439078	-0.4199794254876648	0.0	0.9098616006679218	-0.4181165250583235	0.0	0.9250275454603646	-0.5360284369548387	0.0	0.9282520029128388	-0.647077186465035	0.0	0.9623939550053635	-0.6877979369917362	0.0	0.9510681954645707	-0.6892802289542993	0.0	0.9173081615697993	-0.6615548504878052	0.0	0.9144653712268441	-0.41657272855071203	0.0	0.923805964142601	-0.5365961023545635	0.0	0.925882282583521	-0.6443634104119458	0.0	0.9550530014000356	-0.6846564664535133	0.0	0.9543472920660072	-0.6784641546175464	0.0	0.9148733789971264	-0.6584562757549487	0.0	0.9588226223157995	-0.27334712707396014	0.0	0.9839217094926554	-0.20114522189106065	0.0	0.9926331978146146	-0.23771073841064416	0.0	0.9513226553327976	-0.28036596787428913	0.0	1.0273066801710804	-0.2554467558466992	0.0	1.0805782733223779	-0.222581120598587	0.0	0.9613646921221307	-0.2803628381077661	0.0	1.0285961102142196	-0.2650193826993152	0.0	1.089805681085928	-0.2345041727698412	0.0
83	2.784067085953878	0.9135810842652959	-0.4473702258561992	0.0	0.9103003175642398	-0.4464218451896562	0.0	0.9268750301426636	-0.563499333924718	0.0	0.9306980951957236	-0.6748263914056741	0.0	0.9650654111185086	-0.7128852739496271	0.0	0.9538808278501953	-0.7148275798165792	0.0	0.9195731157792836	-0.6897146101252543	0.0	0.9131469633509546	-0.44401004825228035	0.0	0.924856581928941	-0.5628912596393579	0.0	0.9271625784124093	-0.6708393497749183	0.0	0.9557218178907684	-0.7081893182941846	0.0	0.9540212390604603	-0.7020481919608432	0.0	0.9157993352263787	-0.68528722093268	0.0	0.9609792486641662	-0.3007589012186191	0.0	0.9847566258905804	-0.22766206890588536	0.0	0.993767944833582	-0.2654458642853903	0.0	0.953945568865814	-0.3091431411813499	0.0	1.0302257469852913	-0.30437900984638583	0.0	1.0888376248528226	-0.28653276806025146	0.0	0.9610488887780346	-0.3070769544352769	0.0	1.0313704435753748	-0.2982445898273424	0.0	1.0962946015249968	-0.270259542832707	0.0
84	2.817610062893081	0.9132833007713649	-0.4787432185372655	0.0	0.9107487021049477	-0.4785836813758865	0.0	0.9293651509143691	-0.594004818227831	0.0	0.9318625830287646	-0.7054147909052281	0.0	0.9658419696686377	-0.7395694254208999	0.0	0.9548047189109499	-0.7420892396191558	0.0	0.9204283096063827	-0.7205719384404858	0.0	0.9123670982367432	-0.4755903562440934	0.0	0.9268466693029842	-0.5924023632567345	0.0	0.9277810459599815	-0.7003149858030487	0.0	0.9555843290103168	-0.734099786256435	0.0	0.9531533198836933	-0.7281472315326923	0.0	0.9158813127846659	-0.7149214200447851	0.0	0.9631962810481475	-0.332750877136879	0.0	0.9848239147109954	-0.25874591903603616	0.0	0.9948910384759446	-0.2975417770234975	0.0	0.9566059355556977	-0.34241769963392227	0.0	1.0306630301933022	-0.3588696905486834	0.0	1.0930173873317757	-0.3577115543122828	0.0	0.9612374765290792	-0.33922554300393104	0.0	1.0332008229085266	-0.3411267816728716	0.0	1.1010047200377095	-0.31932975708611894	0.0
85	2.8511530398322846	0.9132153645961327	-0.5134910069665262	0.0	0.9113268632793337	-0.5140129797055627	0.0	0.932481906837524	-0.6268070366575134	0.0	0.9315455140616402	-0.7376022405943417	0.0	0.9652709699272376	-0.7669344417154165	0.0	0.9544215738343076	-0.7701323685787729	0.0	0.9196481904220281	-0.7527807397977864	0.0	0.912399719576722	-0.5107585846486957	0.0	0.9299666204712242	-0.6244787212437379	0.0	0.9278571375530722	-0.7316885275045945	0.0	0.9556516412032837	-0.7613902714610934	0.0	0.9528316276159682	-0.7557279879358577	0.0	0.9151703907056383	-0.7461906185862478	0.0	0.9650562448675061	-0.36837170093383703	0.0	0.9849660143337475	-0.29374811069338513	0.0	0.9962288430859129	-0.33313909314448165	0.0	0.9588660677104427	-0.3795165833921933	0.0	1.0279008179763072	-0.4153848269555482	0.0	1.0915802515550288	-0.4302485065358865	0.0	0.9611690399032252	-0.37584230615380276	0.0	1.0322863367953756	-0.3916643761020929	0.0	1.1009849838125692	-0.37996562558548036	0.0
86	2.884696016771488	0.9134970502181404	-0.550076032261316	0.0	0.912191766868598	-0.5512085073463314	0.0	0.9362206053678611	-0.6606479545914133	0.0	0.9300307033855801	-0.7696860587784626	0.0	0.9643605225952372	-0.7938777788643328	0.0	0.9537976738984928	-0.7977604321070698	0.0	0.917587014714282	-0.7845329666512283	0.0	0.9133141133853375	-0.5479881270444567	0.0	0.934177385574248	-0.657923782695571	0.0	0.9276881382466196	-0.7633758075564556	0.0	0.9569176270630132	-0.7885919519399136	0.0	0.9539791944873367	-0.783369640328632	0.0	0.9139929359206632	-0.7775052136041049	0.0	0.9663046803599273	-0.40573563958627	0.0	0.9858714690529847	-0.33114469726828777	0.0	0.997823158349944	-0.3705119692995169	0.0	0.9604237001674741	-0.418793812750153	0.0	1.0214832872676634	-0.4701812143078345	0.0	1.0836038956494811	-0.4986767699956825	0.0	0.9603990494511564	-0.41488875428282945	0.0	1.0270465388116032	-0.44592442727399717	0.0	1.0937099793231957	-0.44737509447274126	0.0
87	2.918238993710691	0.914150631956954	-0.585982619539995	0.0	0.9134424215894863	-0.5876381597884953	0.0	0.9405220259700753	-0.6935762031977192	0.0	0.9279281482048938	-0.7995792690011078	0.0	0.9639713203179096	-0.8191552695343797	0.0	0.9538352366600703	-0.8235570457480602	0.0	0.9149713077545364	-0.8137854368237971	0.0	0.9149332383068892	-0.5846932001637082	0.0	0.9391741662551109	-0.6907946777771978	0.0	0.9275518630161937	-0.7932660373657826	0.0	0.959736235217757	-0.8138850685848638	0.0	0.9567778480247879	-0.8093253618449208	0.0	0.9127324303282165	-0.8068714772050568	0.0	0.9670623161089302	-0.44216275555472945	0.0	0.9878856445893976	-0.36847984527118793	0.0	0.9997433286119404	-0.40709691249363356	0.0	0.9613657643835838	-0.4575151932073394	0.0	1.0114272030779292	-0.5199915903316683	0.0	1.0687317735877422	-0.5594105216564218	0.0	0.9591045260946807	-0.45337297110054253	0.0	1.0168302576588275	-0.49906351141276023	0.0	1.0778239558358682	-0.5151503593312146	0.0
